<mxfile host="app.diagrams.net" modified="2024-04-10T12:59:26.473Z" agent="Mozilla/5.0 (Windows NT 10.0; Win64; x64) AppleWebKit/537.36 (KHTML, like Gecko) Chrome/123.0.0.0 Safari/537.36" version="24.2.3" etag="M-4STqNbZF4j1DOlYVMZ" type="github">
  <diagram name="Page-1" id="weoOXQGZFRNI_E4wZtk5">
    <mxGraphModel>
      <root>
        <mxCell id="0" />
        <mxCell id="1" parent="0" />
      </root>
    </mxGraphModel>
  </diagram>
</mxfile>
